<svg width="450" height="450" viewBox="0 0 450 450" fill="none" xmlns="http://www.w3.org/2000/svg">
<path fill-rule="evenodd" clip-rule="evenodd" d="M5.31787 222.341C5.31787 99.5455 104.864 0 227.659 0C350.454 0 450 99.5455 450 222.341C450 345.136 350.454 444.682 227.659 444.682C104.864 444.682 5.31787 345.136 5.31787 222.341ZM243.666 205.389C248.816 201.289 254.875 196.463 261.59 191.112C265.703 187.834 263.386 181.208 258.126 181.208H180.967C177.897 181.208 175.408 183.696 175.408 186.766V257.915C175.408 260.985 177.897 263.474 180.967 263.474H258.288C263.553 263.474 265.867 256.834 261.742 253.562C254.997 248.211 248.91 243.385 243.737 239.286C238.178 234.88 233.675 231.316 230.547 228.845C228.982 227.609 227.763 226.649 226.929 225.994C226.51 225.666 226.193 225.419 225.978 225.252L225.75 225.076L225.729 225.06L225.783 225.099L225.87 225.156C226.015 225.247 226.203 225.186 226.28 225.035L227.149 223.339C227.469 222.713 227.468 221.972 227.147 221.347L226.205 219.516C226.165 219.438 226.07 219.409 225.995 219.453C225.939 219.485 225.887 219.516 225.863 219.53L225.776 219.588L225.722 219.626C225.714 219.633 225.719 219.63 225.743 219.611L225.971 219.435C226.185 219.268 226.5 219.021 226.917 218.692C227.749 218.037 228.963 217.076 230.522 215.839C233.639 213.366 238.126 209.799 243.666 205.389ZM234.668 221.065C233.85 221.713 233.861 222.963 234.681 223.611C237.814 226.085 242.319 229.652 247.88 234.058C254.305 239.149 262.14 245.363 270.893 252.308C274.536 255.199 279.907 252.604 279.907 247.954V196.582C279.907 191.925 274.525 189.332 270.883 192.234C262.108 199.229 254.254 205.485 247.819 210.607C242.279 215.018 237.789 218.588 234.668 221.065ZM287.221 273.782C286.961 273.576 286.578 273.762 286.578 274.093V346.852C286.578 349.922 289.066 352.41 292.136 352.41H370.288C375.552 352.41 377.873 345.78 373.752 342.505C347.937 321.995 315.294 296.066 287.221 273.782ZM391.08 336.238C391.08 340.89 385.713 343.489 382.07 340.595C355.666 319.617 320.976 292.06 291.369 268.558C290.468 267.843 289.572 267.132 288.681 266.425C287.352 265.37 286.578 263.767 286.578 262.071V182.4C286.578 180.709 287.348 179.109 288.671 178.055L291.152 176.076C320.853 152.393 355.687 124.598 382.061 103.548C385.701 100.642 391.08 103.24 391.08 107.898V336.238ZM390.918 92.271C391.007 92.271 391.08 92.3437 391.08 92.4331C391.08 92.586 390.887 92.6531 390.792 92.5336C390.707 92.4275 390.783 92.271 390.918 92.271ZM286.993 170.861C314.923 148.591 347.393 122.683 373.097 102.168C377.206 98.889 374.88 92.271 369.623 92.271H292.136C289.066 92.271 286.578 94.7595 286.578 97.8294V170.661C286.578 170.875 286.826 170.994 286.993 170.861ZM175.408 174.344C175.408 174.285 175.436 174.229 175.483 174.193L270.927 99.6275C274.576 96.7765 279.907 99.3766 279.907 104.008V168.979C279.907 172.049 277.419 174.537 274.349 174.537H175.601C175.495 174.537 175.408 174.451 175.408 174.344ZM397.75 92.271L397.751 88.936C397.751 87.0941 396.257 85.6005 394.415 85.6005H59.2367C58.3153 85.6005 57.5684 86.3476 57.5684 87.2692V88.9366C57.5684 88.9373 57.5685 88.9366 57.5684 88.9366L57.5679 355.747L57.5684 357.413C57.5684 358.334 58.3149 359.081 59.2356 359.081H394.415C396.257 359.081 397.751 357.588 397.751 355.746V352.411L397.75 92.271ZM279.907 275.703C279.907 272.633 277.419 270.144 274.349 270.144H175.546C175.47 270.144 175.408 270.206 175.408 270.282C175.408 270.324 175.428 270.364 175.461 270.39L279.268 352.326C279.338 352.381 279.424 352.41 279.513 352.41C279.731 352.41 279.907 352.234 279.907 352.016V275.703ZM64.2378 97.8294C64.2378 94.7595 66.727 92.271 69.7969 92.271H163.18C166.25 92.271 168.738 94.7595 168.738 97.8294V346.852C168.738 349.922 166.25 352.41 163.18 352.41H69.7969C66.727 352.41 64.2378 349.922 64.2378 346.852V97.8294Z" fill="#3240F9"/>
</svg>
