<svg width="629" height="362" viewBox="0 0 629 362" fill="none" xmlns="http://www.w3.org/2000/svg">
<path d="M444.49 97.7727H461.562L466.86 95.3444V86.8821H471.717" stroke="#3240F9"/>
<path d="M466.492 95.05L445.226 94.3877" stroke="#3240F9"/>
<path d="M454.35 93.9463V90.7085H464.064V94.4613" stroke="#3240F9"/>
<path d="M467.154 95.9331V115.654" stroke="#3240F9"/>
<path d="M438.171 115.254V125.977" stroke="#3240F9"/>
<path d="M425.839 111.117V134.633" stroke="#3240F9"/>
<path d="M425.609 110.964C424.996 110.964 415.703 110.964 411.132 110.964V131.799" stroke="#3240F9"/>
<path d="M416.724 132.105V134.709" stroke="#3240F9"/>
<path d="M411.209 131.875H416.724" stroke="#3240F9"/>
<path d="M409.025 105.776L410.716 16.9288H407.291V13.7955H410.716V7.404H401.54V2.50293H386.493V7.404H375.659V13.7955H379.615V16.9288H375.659L374.55 94.2159" stroke="#3240F9"/>
<path d="M374.55 71.7175H346.757" stroke="#3240F9"/>
<path d="M318.031 112.548V99.3079H311.366L310.818 119.853" stroke="#3240F9"/>
<path d="M302.782 82.8716C303.513 82.8717 314.409 83.1762 319.766 83.3284" stroke="#3240F9"/>
<path d="M1.06683 135.854H49.1404V141.883H91.34V133.072L125.347 134.463" stroke="#3240F9"/>
<path d="M0 109.919H15.18V101.321L22.7028 100.515V116.904L33.4497 116.233V79.7483H62.1848V141.274" stroke="#3240F9"/>
<path d="M53.0339 79.7483V74.2968H66.8577V67.8716H73.8669V74.2968H76.9821V140.495" stroke="#3240F9"/>
<path d="M77.5662 80.3325L82.6284 78.9695V121.804H86.1331V113.626L123.71 116.157" stroke="#3240F9"/>
<path d="M134.03 101.166V63.0042H113.781V53.6584H102.877V60.8624L99.5674 61.8359H80.0974V79.7484" stroke="#3240F9"/>
<path d="M1.24341 59.8889L30.4486 61.0571L39.0154 59.8889V79.5537" stroke="#3240F9"/>
<path d="M32.0062 60.8623L30.838 116.157" stroke="#3240F9"/>
<path d="M0.905151 140.007L22.8911 141.093L22.0768 158.736L17.7339 159.821V163.079L0.905151 164.979" stroke="#3240F9"/>
<path d="M35.5126 141.364V150.186H42.4341L48.9485 141.364" stroke="#3240F9"/>
<path d="M52.2057 148.15V160.907" stroke="#3240F9"/>
<path d="M84.506 142.45V151.814H97.8062" stroke="#3240F9"/>
<path d="M94.5585 61.8918V38.7016L99.4926 34.6311L129.714 35.2479L132.674 38.7016V48.5698" stroke="#3240F9"/>
<path d="M120.709 62.8787V49.0632L159.811 49.9267V103.338" stroke="#3240F9"/>
<path d="M159.811 49.9268H163.758V102.844" stroke="#3240F9"/>
<path d="M171.234 103.153C170.539 102.574 170.944 80.9006 171.234 70.1362H218.732V88.2376" stroke="#3240F9"/>
<path d="M191.073 108.946C190.494 107.903 190.832 95.0921 191.073 88.8169L253.052 90.4098" stroke="#3240F9"/>
<path d="M242.626 103.153V96.7815H247.839V93.4509H252.908V87.0791H259.569V84.0381H272.023V87.0791H277.526V92.1475" stroke="#3240F9"/>
<path d="M222.932 89.1064V83.4587H234.372V86.2103H242.047V89.1064" stroke="#3240F9"/>
<path d="M225.828 83.314V73.7563L258.7 75.3494L262.755 74.6253L278.105 75.3494L280.856 72.4531" stroke="#3240F9"/>
<path d="M255.37 75.4941V86.355" stroke="#3240F9"/>
<path d="M226.262 73.6117L237.847 72.0189V69.1226H253.777V72.0189L280.132 72.8876" stroke="#3240F9"/>
<path d="M548.651 139.868V127.329L557.053 122.675V127.329H562.741" stroke="#3240F9"/>
<path d="M554.727 122.416L553.951 105.353H539.99" stroke="#3240F9"/>
<path d="M248.011 249.498L257.399 245.309L258.266 222.922L247.073 227.833H239.562V246.32" stroke="#3240F9"/>
<path d="M247.433 227.761V249.498" stroke="#3240F9"/>
<path d="M239.923 214.473V230.721" stroke="#3240F9"/>
<path d="M236.168 213.967L240.14 214.689L243.028 213.967V219.456" stroke="#3240F9"/>
<path d="M93.7219 359.747V361.58" stroke="#6BA669"/>
<path d="M181.057 249.124V313.047" stroke="#3240F9"/>
<path d="M146.068 162.659V309.01" stroke="#3240F9"/>
<path d="M105.022 282.431V293.534" stroke="#3240F9"/>
<path d="M68.014 257.199L94.2563 268.638L135.638 266.282L96.6113 255.516" stroke="#3240F9"/>
<path d="M92.9105 268.637V278.058L105.022 282.768" stroke="#3240F9"/>
<path d="M117.134 290.169V291.852" stroke="#3240F9"/>
<path d="M104.686 282.431L140.685 279.74V306.318" stroke="#3240F9"/>
<path d="M1.40204 206.035V192.998H27.0727V198.239" stroke="#3240F9"/>
<path d="M38.6312 204.825V193.939L63.8987 193.132V204.825" stroke="#3240F9"/>
<path d="M78.1453 197.836C77.7152 197.299 77.966 194.745 78.1453 193.535H97.2302" stroke="#3240F9"/>
<path d="M4.09009 192.998C4.52017 191.708 4.26929 178.572 4.09009 172.166L8.9285 168.671L15.9174 172.166V192.326" stroke="#3240F9"/>
<path d="M21.9655 192.057V178.348H29.8951V201.734" stroke="#3240F9"/>
<path d="M30.8359 178.617L44.0073 175.929L44.8137 193.401" stroke="#3240F9"/>
<path d="M22.7719 178.079L34.7336 175.122L43.8729 175.929" stroke="#3240F9"/>
<path d="M16.8582 172.703L29.8951 169.209V175.929" stroke="#3240F9"/>
<path d="M29.7607 175.929H30.2984" stroke="#3240F9"/>
<path d="M9.06287 168.402L23.847 164.908L29.3575 169.343" stroke="#3240F9"/>
<path d="M30.5671 171.09H58.9258V167.327H68.1995H77.742V177.407" stroke="#3240F9"/>
<path d="M83.1181 175.66L78.1453 177.811L64.8756 178.079V205.228" stroke="#3240F9"/>
<path d="M64.8756 173.778L52.6089 173.106L68.6027 172.166L64.8756 173.778Z" stroke="#3240F9"/>
<path d="M51.937 192.998L53.0122 173.106" stroke="#3240F9"/>
<path d="M77.8765 167.058L92.2574 163.026L98.0366 165.177" stroke="#3240F9"/>
<path d="M98.0366 165.177L88.6285 168.402V193.401" stroke="#3240F9"/>
<path d="M78.1453 168.134H88.6286" stroke="#3240F9"/>
<path d="M99.6494 156.978C101.047 157.086 131.234 160.249 146.152 161.817L180.425 159.532" stroke="#3240F9"/>
<path d="M144.943 155.769V160.876" stroke="#3240F9"/>
<path d="M119.003 152.677L145.48 156.306L161.743 152.677" stroke="#3240F9"/>
<path d="M181.964 290.483L221.517 287.966" stroke="#3240F9"/>
<path d="M235.743 248.537V186.268H181.336" stroke="#3240F9"/>
<path d="M229.364 185.965C229.364 185.349 229.364 178.376 229.364 174.967H216.606V185.965" stroke="#3240F9"/>
<path d="M213.197 171.448V185.965" stroke="#3240F9"/>
<path d="M189.876 186.075V171.337L213.527 171.997" stroke="#3240F9"/>
<path d="M304.897 308.673V278.655L293.609 274.189L338.761 267.739V248.76L292.617 247.148L291.749 274.189" stroke="#3240F9"/>
<path d="M283.066 245.783H290.508L292.493 247.644" stroke="#3240F9"/>
<path d="M305.916 279.235L344.312 277.807" stroke="#3240F9"/>
<path d="M345.454 285.8V269.957L374.571 279.092L373.715 295.221" stroke="#3240F9"/>
<path d="M319.619 312.349V284.944L362.296 299.646L401.263 301.501V313.776" stroke="#3240F9"/>
<path d="M345.454 285.372L374.429 295.792L393.983 281.946L392.556 276.951L389.987 270.385V276.951L387.417 271.67L386.561 279.663L384.563 273.383C384.515 276.903 384.277 283.745 383.706 282.946C383.135 282.146 381.946 277.665 381.423 275.524L380.281 284.088L378.282 276.951L377.426 286.514L374.429 278.664" stroke="#3240F9"/>
<path d="M379.139 292.794L397.98 298.075L423.386 281.233L402.833 273.811L393.84 278.664" stroke="#3240F9"/>
<path d="M423.529 281.376V308.067" stroke="#3240F9"/>
<path d="M398.551 297.79V301.358" stroke="#3240F9"/>
<path d="M338.833 267.622L416.3 269.53L422.179 266.07" stroke="#3240F9"/>
<path d="M353.392 269.408L377.937 277.079" stroke="#3240F9"/>
<path d="M381.595 276.135C380.179 275.002 367.867 270.942 361.889 269.054" stroke="#3240F9"/>
<path d="M383.837 273.539C382.421 273.255 373.885 270.117 369.795 268.583" stroke="#3240F9"/>
<path d="M387.141 271.769L378.645 269.054" stroke="#3240F9"/>
<path d="M389.973 271.178L386.197 268.937" stroke="#3240F9"/>
<path d="M283.074 245.964L292.508 240.199V231.813L313.876 232.512L317.665 230.241V216.864L353.164 218.785L360.743 215.796H335.978V212.701H347.138L354.1 208.874H396.109V205.333H415.225V209.936H423.425" stroke="#3240F9"/>
<path d="M421.89 279.25L425.316 142.08H455.813V132.529M455.813 132.529L481.954 133.366L489.997 129.848L464.359 128.004L455.813 132.529Z" stroke="#3240F9"/>
<path d="M425.484 141.912C427.494 140.84 429.114 139.678 429.673 139.231H455.478" stroke="#3240F9"/>
<path d="M482.151 134.146L476.84 273.313" stroke="#3240F9"/>
<path d="M515.084 297.54L459.895 295.438H459.37" stroke="#3240F9"/>
<path d="M424.154 283.454L539.368 286.818" stroke="#3240F9"/>
<path d="M486.454 141.974L483.343 263.04V264.336" stroke="#3240F9"/>
<path d="M545.042 286.89L549.19 147.936L513.674 145.862L509.785 279.89" stroke="#3240F9"/>
<path d="M549.709 148.714L552.301 146.64V162.713H555.153L556.449 144.047L559.56 141.714L556.449 261.744" stroke="#3240F9"/>
<path d="M552.042 145.603H539.598" stroke="#3240F9"/>
<path d="M556.19 144.047L543.487 142.492" stroke="#3240F9"/>
<path d="M517.044 143.788L486.713 141.714L492.675 139.64L520.155 141.714L517.044 143.788Z" stroke="#3240F9"/>
<path d="M479.713 127.974V121.234L530.266 123.049V138.863" stroke="#3240F9"/>
<path d="M529.488 138.863L559.56 140.937" stroke="#3240F9"/>
<path d="M338.687 261.066L383.937 262.711V267.648" stroke="#3240F9"/>
<path d="M416.161 268.882V263.534H384.211" stroke="#3240F9"/>
<path d="M338.824 248.45L343.349 246.256V258.46" stroke="#3240F9"/>
<path d="M343.349 246.53H349.108L351.576 242.554L292.339 240.223" stroke="#3240F9"/>
<path d="M338.138 260.517L352.947 251.467" stroke="#3240F9"/>
<path d="M349.794 246.531V253.113" stroke="#3240F9"/>
<path d="M352.673 251.741L353.633 219.106" stroke="#3240F9"/>
<path d="M361.312 216.089V231.036L365.563 228.293V245.434" stroke="#3240F9"/>
<path d="M422.88 248.725C421.454 248.725 384.257 246.896 365.837 245.982" stroke="#3240F9"/>
<path d="M366.111 233.367L422.057 235.286" stroke="#3240F9"/>
<path d="M423.292 217.323C422.304 217.323 415.658 217.323 412.459 217.323V212.25L411.225 213.072L385.308 212.25V233.641" stroke="#3240F9"/>
<path d="M361.449 215.815H385.446" stroke="#3240F9"/>
<path d="M240.645 220.539H247.361L259.205 214.978L243.317 213.029H242.956" stroke="#3240F9"/>
<path d="M259.132 224.005L268.521 224.8V241.843" stroke="#3240F9"/>
<path d="M269.243 225.522L288.091 217.289L273.937 216.206L259.133 223.644" stroke="#3240F9"/>
<path d="M272.204 217H258.699" stroke="#3240F9"/>
<path d="M256.316 219.961V222.85V223.211" stroke="#3240F9"/>
<path d="M240.212 224.078H245.845L256.316 220.178" stroke="#3240F9"/>
<path d="M246.134 224.655V227.4" stroke="#3240F9"/>
<path d="M357.938 209.044V206.307L361.04 205.577V196.818H373.175L377.464 193.99H396.898L391.332 197.822H403.103L410.402 193.99L369.891 191.617L361.04 196.362" stroke="#3240F9"/>
<path d="M373.175 197V208.041" stroke="#3240F9"/>
<path d="M377.829 194.628V208.406" stroke="#3240F9"/>
<path d="M392.062 198.46V208.314" stroke="#3240F9"/>
<path d="M403.559 198.278V204.756" stroke="#3240F9"/>
<path d="M409.307 194.263L408.668 204.482" stroke="#3240F9"/>
<path d="M423.801 197.004H423.04" stroke="#3240F9"/>
<path d="M423.801 196.396H409.649" stroke="#3240F9"/>
<path d="M379.977 165.962V191.983" stroke="#3240F9"/>
<path d="M379.064 164.897L397.02 165.81V192.135" stroke="#3240F9"/>
<path d="M396.867 166.419L406.15 162.462L410.867 163.375V193.352" stroke="#3240F9"/>
<path d="M411.628 164.897H424.105" stroke="#3240F9"/>
<path d="M401.128 160.941C401.006 159.236 401.077 147.043 401.128 141.159H363.999V180.418" stroke="#3240F9"/>
<path d="M351.826 206.895V185.896L349.391 187.874V168.549L339.805 170.375V204.765" stroke="#3240F9"/>
<path d="M340.109 170.223H326.87" stroke="#3240F9"/>
<path d="M325.805 207.961V167.027L319.566 170.68V167.027H309.675L308.762 164.897H296.437L295.676 220.743" stroke="#3240F9"/>
<path d="M309.828 167.94L308.61 222.569" stroke="#3240F9"/>
<path d="M319.11 171.593L317.892 216.634" stroke="#3240F9"/>
<path d="M265.65 215.65L267.082 177.918H277.749V183.809H283.958V189.222L295.421 190.018" stroke="#3240F9"/>
<path d="M189.876 169.402C189.992 168.057 189.924 128.566 189.876 108.988L236.154 112.988V103.988H260.905L259.405 204.243L266.406 201.993" stroke="#3240F9"/>
<path d="M243.404 207.243C243.404 205.843 244.571 138.656 245.154 105.238" stroke="#3240F9"/>
<path d="M237.404 120.239V209.993" stroke="#3240F9"/>
<path d="M191.152 117.989L237.404 120.989L245.404 117.989" stroke="#3240F9"/>
<path d="M124.837 150.904C124.837 149.908 124.837 117.781 124.837 101.843L187.845 104.582L188.468 186.268" stroke="#3240F9"/>
<path d="M268.402 148.955L267.607 177.97" stroke="#3240F9"/>
<path d="M260.751 148.856H268.899L274.861 146.571L260.751 146.074" stroke="#3240F9"/>
<path d="M296.299 172.12H282.309V183.677H281.903" stroke="#3240F9"/>
<path d="M295.995 166.038H285.35V171.512" stroke="#3240F9"/>
<path d="M345.62 167.326L346.341 117.186L319.888 115.863V120.192H308.105V164.44V165.162" stroke="#3240F9"/>
<path d="M304.137 164.2L305.714 92.4411C305.024 92.1603 303.646 91.5988 303.646 91.5988V87.6938H302.651V70.3132H301.196V83.253H294.994V71.9211H293.693V83.253H291.013V69.8538L289.558 70.3132V83.253H283.892V71.3852C283.203 71.2065 281.886 70.9564 282.131 71.3852C282.376 71.8139 282.233 82.079 282.131 87.158H280.293V92.4411C279.043 92.4411 276.542 92.4411 276.542 92.4411V177.48" stroke="#3240F9"/>
<path d="M274.352 147.522V177.756" stroke="#3240F9"/>
<path d="M347.144 126.044H372.224V137.961" stroke="#3240F9"/>
<path d="M363.864 141.697L370.979 137.25L404.418 138.673L401.572 141.697" stroke="#3240F9"/>
<path d="M360.129 126.578V112.348L408.687 114.483L407.798 162.329" stroke="#3240F9"/>
<path d="M409.043 134.582L432.897 135.465M432.897 135.465L437.876 135.649V138.673L432.897 135.465ZM433.944 126.044L463.826 127.111" stroke="#3240F9"/>
<path d="M400.149 112.882L380.05 93.1384L373.825 98.2967" stroke="#3240F9"/>
<path d="M374.181 112.882C374.892 111.744 374.477 99.7195 374.181 93.8499L368.844 95.8065V110.925" stroke="#3240F9"/>
<path d="M368.133 96.1622L345.722 94.7394L347.5 39.6L340.208 37.8214L349.99 33.3747H344.477V31.0624L323.132 29.6394V33.3747H317.44L325.978 37.8214L320.286 39.6V114.305" stroke="#3240F9"/>
<path d="M345.722 94.7393V106.834" stroke="#3240F9"/>
<path d="M329.358 115.728V109.325L351.591 110.214L352.481 105.945H360.129V111.815" stroke="#3240F9"/>
<path d="M627.714 194.218V196.466" stroke="#3240F9"/>
<path d="M393.304 106.197H420.41V103.633H428.224V108.761H430.422V113.4H438.236V114.988L472.002 116.021V68.98H490.663V121.686" stroke="#3240F9"/>
<path d="M490.908 68.9802V63.5869H513.216V121.686" stroke="#3240F9"/>
<path d="M513.461 62.8516V55.0068H541.162L538.956 138.601" stroke="#3240F9"/>
<path d="M534.388 54.2953L533.838 32.8673H531.75V1H526.696V11.9886H525.047V54.2953" stroke="#3240F9"/>
<path d="M437.601 105.067H453.517L457.706 103.511V101.117H461.655V115.239" stroke="#3240F9"/>
<path d="M440.593 114.521C434.892 78.795 435.496 58.6257 444.387 22.7546" stroke="#3240F9"/>
<path d="M442.3 104.443C436.6 68.7171 438.874 57.9191 447.764 22.0481" stroke="#3240F9"/>
<path d="M418.493 101.925C412.793 66.1992 419.015 46.5661 427.906 10.6951L444.219 22.8958" stroke="#3240F9"/>
<path d="M447.97 22.8176L430.7 9.53247" stroke="#3240F9"/>
<path d="M430.7 10.1577L430.074 11.7207" stroke="#3240F9"/>
<path d="M439.921 7.18799V7.99512" stroke="#3240F9"/>
<path d="M426.711 27.2554L438.988 27.5661V23.2669L429.664 16.2222L426.452 27.5661" stroke="#3240F9"/>
<path d="M466.062 19.2913V21.9783" stroke="#3240F9"/>
<path d="M443.541 41.02C445.792 63.1222 445.516 75.4988 441.617 97.5544" stroke="#3240F9"/>
<path d="M62.9674 319.103C62.9674 317.757 62.9674 280.861 62.9674 262.581H64.8756L66.6683 256.526H96.6113L99.3028 140.118H118.48V152.23H162.217V158.622H181.057V250.133H221.766V287.814L287.708 285.123L297.465 287.814V305.309" stroke="#3240F9"/>
<path d="M445.48 34.1926C449.526 56.4041 448.448 82.0543 442.723 103.981" stroke="#3240F9"/>
<path d="M1.24976 311.768V309.65C1.24976 309.157 1.79962 308.863 2.21017 309.136V309.136C2.28288 309.185 2.36505 309.217 2.45124 309.232L2.9273 309.311C3.64135 309.43 4.23666 308.766 4.04067 308.069V308.069C3.96776 307.81 3.79217 307.592 3.55455 307.465L2.814 307.07C1.85118 306.557 1.24976 305.554 1.24976 304.463V301.287C1.24976 300.374 1.99042 299.633 2.90409 299.633V299.633C3.53071 299.633 4.10355 299.987 4.38377 300.548L4.86744 301.515C5.2791 302.338 6.24676 302.717 7.10789 302.392V302.392C7.80653 302.128 8.26884 301.459 8.26884 300.712V300.178C8.26884 299.838 8.09585 299.522 7.80991 299.339V299.339C7.27902 299 7.19347 298.258 7.63302 297.807L10.0465 295.326C10.651 294.705 11.449 294.308 12.3092 294.2L15.7561 293.77C16.2704 293.705 16.7575 293.502 17.1651 293.182V293.182C18.5423 292.1 18.6293 290.043 17.336 288.861C16.3711 287.98 15.4909 287.19 15.2204 286.987C14.5746 286.503 10.0534 285.857 9.48823 284.808C8.92309 283.758 8.2772 282.224 7.30838 281.901C7.03735 281.811 6.50977 281.54 5.88092 281.191C3.77298 280.019 2.91838 277.452 3.75205 275.189V275.189C3.86809 274.874 4.01461 274.572 4.19087 274.286C5.51862 272.134 7.84017 268.437 8.26884 268.015C8.58026 267.708 10.6922 266.243 12.6817 264.887C14.3614 263.743 16.2063 262.864 18.1472 262.261L19.6993 261.779C20.6907 261.47 21.7228 261.314 22.7609 261.314V261.314C24.3851 261.314 25.9863 261.697 27.4342 262.433L28.0319 262.737C29.4368 263.451 30.9588 263.906 32.5251 264.08L35.2428 264.382H36.2208C38.7689 264.382 41.7631 264.861 43.0741 267.046V267.046C43.1539 267.179 43.7019 267.663 44.4205 268.268C46.4052 269.938 48.1719 273.208 46.0613 274.716V274.716C44.931 275.523 43.72 277.299 42.4282 277.299C41.1365 277.299 40.1676 277.299 40.1676 277.945C40.1676 278.591 38.1493 280.367 38.5529 280.367C38.9566 280.367 43.9622 282.789 43.9622 283.193C43.9622 283.597 45.8998 285.534 47.1916 286.987C48.4834 288.441 49.1293 289.605 49.1293 291.122C49.1293 292.639 49.7751 292.316 49.1293 294.819C48.9496 295.515 48.2572 296.322 47.3331 297.131C44.6315 299.493 43.2564 303.997 46.0613 306.236V306.236C46.6265 306.687 50.0173 307.783 50.9054 308.496C51.7935 309.21 54.6193 309.357 55.5881 310.562C56.5569 311.768 58.3331 312.177 58.8175 313.146C59.3019 314.115 60.0285 315.245 60.2707 316.052V316.052C61.3243 319.564 65.1878 321.416 68.7709 322.193C71.3205 322.746 73.6332 323.246 73.9957 323.318C74.5268 323.425 74.3592 321.924 74.1823 320.746C74.0535 319.889 73.7884 319.042 73.4595 318.24C73.1389 317.459 72.8797 316.705 72.6802 316.052C72.3603 315.005 72.867 313.916 73.8241 313.385V313.385C74.6277 312.938 75.126 312.091 75.126 311.172C75.126 310.103 75.126 308.932 75.126 308.496C75.126 307.663 76.9829 307.561 76.3371 306.236C75.6912 304.911 73.9957 306.295 73.9957 302.964C73.9957 299.633 72.8654 298.452 73.9957 297.483C74.6293 296.94 76.5155 294.917 78.1434 293.137C79.3634 291.803 80.7147 290.595 82.1634 289.513C82.6629 289.14 83.1872 288.744 83.684 288.36C85.4601 286.987 82.8766 287.552 87.8822 286.987C90.9776 286.638 92.7931 286.523 93.6567 286.502C93.9717 286.494 94.2425 286.703 94.3227 287.007C94.3522 287.119 94.3793 287.228 94.4042 287.334C94.5509 287.957 94.5446 290.494 94.664 291.122V291.122C95.1484 293.671 95.3098 293.671 96.6823 293.671C98.0548 293.671 99.6695 292.72 100.477 292.478C101.284 292.235 103.626 291.993 104.029 291.993C104.433 291.993 105.967 289.62 105.644 291.993C105.542 292.742 105.336 293.451 105.098 294.07C104.834 294.756 104.909 294.819 105.644 294.819V294.819C107.259 294.819 109.116 292.155 108.873 294.819C108.714 296.571 106.579 297.783 104.972 298.381C104.425 298.584 104.029 299.089 104.029 299.673V299.673C104.029 300.381 104.603 300.955 105.311 300.955H106.558C107.146 300.955 107.716 300.75 108.169 300.375L109.937 298.913C110.118 298.763 110.346 298.681 110.581 298.681V298.681C111.139 298.681 111.592 299.134 111.592 299.692V301.216C111.592 301.698 111.455 302.169 111.197 302.575L109.001 306.035C108.916 306.169 108.815 306.29 108.699 306.397L106.933 308.023C106.442 308.475 106.726 309.294 107.391 309.346V309.346C108.169 309.407 108.366 310.458 107.663 310.796L107.424 310.911C106.793 311.215 106.865 312.136 107.535 312.338V312.338C108.283 312.563 108.256 313.631 107.498 313.818L105.792 314.24C105.694 314.264 105.593 314.276 105.492 314.276H105.273C104.586 314.276 104.029 314.833 104.029 315.52V315.52C104.029 315.86 104.168 316.185 104.415 316.42L105.586 317.537C105.624 317.573 105.643 317.594 105.659 317.644V317.644C105.762 317.965 106.545 319.344 106.391 319.644C105.776 320.845 105.207 321.999 104.761 322.923C104.48 323.505 105.036 324.13 105.649 323.925L107.23 323.398C107.388 323.345 107.535 323.266 107.666 323.164L110.209 321.178C113.106 318.915 114.799 315.444 114.799 311.768V311.768C114.799 310.562 123.047 309.567 124.422 309.567C124.998 309.567 126.101 309.567 127.219 309.567C128.945 309.567 130.137 310.231 131.84 309.953V309.953C132.779 309.8 134.309 309.173 135.26 309.131C141.921 308.832 146.25 309.59 148.27 310.225C148.829 310.401 149.165 310.935 149.165 311.521V311.521C149.165 312.196 149.611 312.789 150.256 312.989C152.63 313.724 156.307 315.001 157.871 316.052C159.704 317.284 161.536 318.826 162.224 319.443C163.064 320.353 164.927 322.401 165.66 323.318C166.246 324.052 170.297 323.517 173.143 322.636C175.292 321.97 176.307 319.875 177.216 317.818C177.252 317.736 177.288 317.655 177.324 317.575C178.317 315.357 179.954 313.146 182.385 313.146V313.146C187.413 312.824 192.261 312.291 194.982 311.949C195.896 311.834 196.777 311.548 197.592 311.12V311.12C198.294 310.75 199.073 310.512 199.814 310.794C200.291 310.976 200.899 311.28 201.629 311.768C203.028 312.702 204.745 313.584 205.747 314.061C206.028 314.195 206.211 314.477 206.211 314.789V314.789C206.211 315.373 206.823 315.756 207.348 315.501L209.61 314.405C209.786 314.319 209.952 314.212 210.102 314.086L211.759 312.691C212.486 312.079 213.298 311.574 214.168 311.192V311.192C215.12 310.775 216.179 310.379 217.147 310.758C217.929 311.065 218.573 311.755 218.354 313.146C218.207 314.076 217.958 315.515 217.712 316.809C217.311 318.911 217.101 319.243 218.354 320.977V320.977C219.193 322.139 220.009 323.15 220.725 323.978C222.059 325.522 222.936 327.466 222.936 329.506V329.506V329.506C222.936 329.692 222.687 329.736 222.627 329.56C221.845 327.268 220.782 323.351 221.103 320.977C221.311 319.442 221.725 317.849 222.128 316.556C222.607 315.019 223.449 313.524 225.039 313.28C225.579 313.197 226.245 313.146 227.06 313.146C227.816 313.146 228.542 313.146 229.221 313.146C231.958 313.146 235.556 310.913 237.14 313.146V313.146C239.202 316.052 241.951 317.909 241.951 319.443C241.951 320.181 243.884 320.586 246.006 320.792C248.492 321.033 251.014 319.873 252.032 317.592V317.592C252.175 317.271 252.312 316.859 252.437 316.405C253.023 314.287 252.477 311.283 254.552 310.562V310.562C258.447 309.21 257.989 306.831 262.342 307.663C266.695 308.496 267.84 307.366 269.673 309.567C271.202 311.403 269.702 311.085 271.954 311.448C273.18 311.646 274.424 311.781 275.665 311.731C278.347 311.623 280.461 311.289 282.068 310.88C284.645 310.225 286.305 307.415 288.688 306.236V306.236C291.667 304.763 286.856 302.373 294.187 304.304C296.409 304.89 298.109 305.445 299.384 305.936C301.687 306.82 303.75 308.308 305.871 309.567V309.567C304.955 308.932 303.947 307.663 307.246 307.663C308.579 307.663 309.781 307.663 310.795 307.663C312.518 307.663 314.282 308.421 315.338 309.783V309.783C315.538 310.04 316.092 310.656 316.36 310.842C321.134 314.153 321.295 315.818 323.705 313.216C324.04 312.855 324.796 312.214 325.192 311.921V311.921C329.265 308.913 333.876 312.058 333.876 317.122V330.368C333.876 334.194 330.774 337.295 326.949 337.295V337.295H324.384C322.484 337.295 320.64 337.937 319.15 339.116L316.619 341.12C316.197 341.454 315.952 341.962 315.952 342.499V342.499C315.952 343.109 315.635 343.676 315.116 343.996L309.697 347.336" stroke="#6BA669" stroke-width="2.5"/>
<path d="M298.998 335.233C298.202 334.703 293.681 329.264 289.738 324.417C287.179 321.271 283.35 319.425 279.295 319.425V319.425C275.859 319.425 276.317 318.28 271.964 320.8C267.611 323.32 267.382 322.862 265.091 324.924C262.8 326.986 261.196 327.444 261.196 329.047C261.196 330.651 262.571 329.047 260.051 335.233C257.53 341.419 255.01 340.044 253.636 339.128C253.593 339.1 253.549 339.071 253.504 339.043C251.238 337.62 247.87 338.365 247.221 340.961V340.961C246.763 342.794 244.93 344.397 243.555 344.397C242.181 344.397 244.013 346.689 239.89 340.961C235.766 335.233 231.871 335.462 231.871 337.295C231.871 339.128 231.871 340.274 231.871 342.335C231.871 343.653 231.187 344.744 230.345 345.567C229.045 346.839 227.744 347.088 226.228 346.082V346.082C225.094 345.33 223.113 344.379 221.754 344.455C218.89 344.615 216.622 345.089 214.945 345.625C212.919 346.273 211.439 348.59 209.876 347.147V347.147C202.729 340.732 198.498 337.906 197.276 337.295C196.131 336.837 193.336 336.562 191.32 339.128V339.128C189.622 341.288 186.927 344.72 184.196 345.019L179.406 345.543C177.574 345.543 173.45 345.543 171.617 345.543C169.784 345.543 167.035 345.543 165.889 345.543" stroke="#6BA669" stroke-width="2.5"/>
<path d="M157.871 339.815L157.535 340.067C156.222 341.052 154.929 343.252 153.289 343.252V343.252C150.31 343.252 149.852 344.627 147.79 343.252C146.141 342.152 145.576 340.503 145.499 339.815C145.499 339.739 145.499 338.899 145.499 336.15V336.15C145.499 331.689 147.149 326.227 142.786 325.3C142.555 325.251 142.314 325.202 142.063 325.153C132.669 323.32 131.295 321.487 129.233 323.32C127.583 324.786 122.283 327.444 119.84 328.589C118.465 329.429 115.441 331.797 114.341 334.546C113.646 336.308 113.082 337.834 112.628 339.142C111.425 342.609 113.879 345.543 117.549 345.543V345.543" stroke="#6BA669" stroke-width="2.5"/>
<path d="M62.1057 344.168L62.8982 340.891C64.0811 335.999 61.5408 331.461 57.9819 327.902V327.902V327.902C55.7699 325.69 52.4395 325.153 49.3112 325.153C46.3949 325.153 43.1549 325.153 41.2574 325.153C37.3626 325.153 30.2605 321.029 29.3441 323.091V323.091C28.8409 324.223 24.9759 334.79 24.6232 335.978C24.1909 337.434 23.8183 338.563 23.6165 338.899V338.899C22.5529 340.672 20.6738 341.824 19.6244 343.605C19.4217 343.949 19.2269 344.259 19.0419 344.538C18.1259 345.916 16.5763 346.584 14.9385 346.823L6.43378 348.063" stroke="#6BA669" stroke-width="2.5"/>
<path d="M152.83 328.131L152.503 327.23C151.507 324.491 151.694 321.022 149.558 319.04C149.437 318.928 149.306 318.826 149.165 318.738C148.046 318.038 145.788 318.184 144.103 318.462C143.302 318.594 142.75 319.307 142.75 320.119V320.119C142.75 320.415 142.676 320.707 142.534 320.967L141.375 323.091" stroke="#6BA669" stroke-width="2.5"/>
<path d="M34.6134 307.512L39.6537 299.264C40.4174 298.195 41.4865 296.057 39.6537 296.057C37.3627 296.057 35.988 296.057 34.6134 296.057C33.5137 296.057 29.8786 296.057 28.1985 296.057" stroke="#6BA669" stroke-width="2.5"/>
<path d="M17.4307 290.558H20.8672H21.5921C22.6028 290.558 23.58 290.92 24.3473 291.577V291.577C24.6226 291.813 24.8665 292.084 25.0729 292.382L25.9756 293.686C26.54 294.501 27.1766 295.264 27.8777 295.965L28.4276 296.515" stroke="#6BA669" stroke-width="2.5"/>
<path d="M222.936 278.645L223.178 277.836C223.85 275.597 226.827 274.027 227.06 276.354V276.354C227.06 276.867 227.081 277.363 227.117 277.836C227.353 280.916 230.189 282.769 233.277 282.769V282.769C234.754 282.769 236.2 282.354 237.452 281.571L239.202 280.478" stroke="#6BA669" stroke-width="2.5"/>
<path d="M239.202 278.645C239.202 277.609 237.575 273.509 236.621 271.25C236.51 270.989 236.453 270.71 236.453 270.426V270.426C236.453 269.271 237.389 268.335 238.544 268.335H245.617C246.839 268.335 249.833 268.335 252.032 268.335C254.781 268.335 252.49 268.335 257.301 268.335C262.113 268.335 261.425 268.335 264.174 268.335C266.924 268.335 262.8 263.982 270.36 268.335C276.664 271.964 280.419 273.205 281.892 274.181C282.352 274.486 282.486 275.044 282.568 275.59C282.752 276.815 283.307 278.087 283.986 279.249C284.778 280.603 288.085 280.043 289.376 280.936V280.936C291.758 282.585 292.354 284.22 292.354 284.831V287.58" stroke="#6BA669" stroke-width="2.5"/>
<path d="M309.995 224.118L309.4 223.788C307.19 222.56 304.668 220.286 302.664 221.827V221.827C300.877 223.202 298.12 223.803 296.112 224.018C295.072 224.129 294.199 223.087 293.154 223.087V223.087C292.58 223.087 291.04 222.83 290.342 222.701C289.699 222.572 288.313 222.392 287.916 222.701C287.419 223.087 287.75 223.275 286.813 224.118C286.664 224.252 286.556 224.409 286.479 224.578C285.885 225.88 286.779 228.191 285.379 228.49V228.49C284.607 228.656 282.622 229.318 282.622 230.586C282.622 231.854 282.236 232.791 282.071 233.012C281.906 233.232 281.63 233.563 281.63 234.556C281.63 235.548 282.678 237.202 280.527 237.202C278.377 237.202 278.101 237.147 277.991 237.643V237.643C277.779 238.598 277.439 239.531 277.439 240.509V241.388C277.439 241.827 277.533 242.261 277.715 242.661V242.661C277.897 243.061 277.991 243.495 277.991 243.934V246.905C277.991 247.553 277.799 248.187 277.439 248.726V248.726" stroke="#6BA669" stroke-width="2.5"/>
<path d="M272.146 241.944C272.054 241.742 271.374 241.459 269.389 241.944C268.127 242.253 266.337 242.518 264.842 242.704C263.73 242.842 263.319 244.087 262.718 245.032V245.032C262.332 245.638 261.78 246.576 262.056 247.182C262.332 247.789 262.111 247.954 262.718 248.561C263.324 249.167 262.883 251.593 262.056 252.145C261.229 252.696 259.795 252.861 258.582 253.027C257.369 253.192 256.377 253.027 255.384 253.027C254.392 253.027 252.297 253.027 251.745 253.027C251.194 253.027 250.091 253.027 248.878 251.373C247.665 249.719 248.602 249.939 246.838 248.561C246.44 248.25 245.954 247.914 245.438 247.58C243.719 246.468 242.914 244.183 241.324 245.473V245.473C240.659 246.013 240.09 246.484 239.607 246.892C238.057 248.199 235.853 248.561 233.825 248.561V248.561C233.55 248.561 234.101 248.561 233.109 248.561C232.116 248.561 234.652 248.561 230.517 248.561C226.382 248.561 225.224 247.954 225.224 249.167C225.224 250.38 226.713 251.262 224.948 252.145C223.537 252.85 222.669 254.093 222.412 254.626" stroke="#6BA669" stroke-width="2.5"/>
<path d="M333.876 306.233L342.685 312.497L345.067 313.926C346.352 314.697 347.521 315.648 348.537 316.749V316.749C350.904 319.313 352.188 322.628 352.99 326.025C353.138 326.653 353.303 327.209 353.485 327.617C354.349 329.561 354.781 332.801 355.861 332.801C356.941 332.801 358.237 336.041 362.557 332.801C364.114 331.633 366.491 330.83 368.935 330.294C372.268 329.563 375.103 324.738 376.813 321.785V321.785C379.189 317.681 380.269 316.385 380.917 315.089V315.089C382.299 312.324 385.419 310.959 388.479 310.521L389.284 310.407C391.592 310.077 393.955 310.282 396.117 311.155C399.282 312.433 402.733 314.091 402.733 315.089C402.733 315.941 403.171 319.574 403.641 323.214C403.963 325.699 407.013 326.695 408.751 324.889V324.889C409.56 324.049 409.809 322.817 409.391 321.729L407.945 317.97C407.271 316.218 407.692 314.233 409.02 312.906V312.906C410.729 311.197 413.449 311.042 415.33 312.56C420.542 316.765 427.381 322.394 428.221 323.513C429.257 324.895 435.853 325.385 439.021 325.457H439.885" stroke="#6BA669" stroke-width="2.5"/>
<path d="M419.149 311.201L422.927 308.978C425.233 307.622 427 305.51 427.93 303.001L428.117 302.494C428.471 301.538 428.653 300.527 428.653 299.507V299.507C428.653 296.685 429.984 293.921 432.559 292.764C433.969 292.13 435.314 291.766 435.997 292.193V292.193C438.714 293.891 442.065 295.247 444.46 293.118L444.862 292.76C445.285 292.385 445.639 291.939 445.945 291.464C446.413 290.736 446.966 289.986 447.535 289.269C449.481 286.815 452.362 284.615 455.359 285.522C456.287 285.803 457.176 286.329 457.876 287.225C460.405 290.465 462.349 289.385 461.053 292.193C460.244 293.944 459.146 295.634 458.405 296.669C458.064 297.144 457.787 297.663 457.613 298.22L457.2 299.547C456.914 300.466 457.176 301.468 457.876 302.129V302.129" stroke="#6BA669" stroke-width="2.5"/>
<path d="M470.557 314.225L467.617 312.374C466.36 311.583 464.725 311.141 464.725 309.656V309.656C464.725 309.236 464.869 307.775 465.126 307.443C472.301 298.164 472.744 296.081 474.229 296.081C475.741 296.081 477.901 292.841 480.061 296.081C480.596 296.884 481.035 297.611 481.39 298.249C482.383 300.036 482.653 302.082 482.653 304.126V304.289" stroke="#6BA669" stroke-width="2.5"/>
<path d="M473.581 329.345L481.218 324.395C483.864 322.68 486.061 320.356 487.626 317.618V317.618C488.906 315.377 490.613 313.41 492.65 311.825L493.96 310.806C496.198 309.066 498.699 307.648 501.464 307.024C503.654 306.53 505.801 306.269 506.413 306.881C507.709 308.177 508.141 306.881 509.437 306.881C510.142 306.881 510.887 305.282 511.427 303.716C511.879 302.407 512.505 301.153 513.417 300.111L516.396 296.706C517.376 295.586 519.006 295.305 520.304 296.032V296.032C521.978 296.969 524.082 296.193 525.016 294.518C525.803 293.108 526.733 291.827 527.581 291.545C528.697 291.173 531.29 290.036 533.411 289.078C534.852 288.427 536.343 287.889 537.886 287.539C539.95 287.07 542.382 286.577 543.349 286.577C543.773 286.577 544.548 286.577 545.486 286.577C549.098 286.577 551.265 281.717 554.797 280.961V280.961C557.216 280.442 561.191 279.881 562.876 279.665H564.301" stroke="#6BA669" stroke-width="2.5"/>
<path d="M561.493 321.785C559.117 320.201 554.019 317.162 552.637 317.681C550.909 318.329 547.885 319.409 545.725 319.841C543.565 320.273 537.949 321.785 534.709 321.785C531.469 321.785 529.093 321.785 525.421 321.785C521.749 321.785 511.813 319.84 511.597 317.681C511.381 315.521 510.733 310.769 509.869 309.041V309.041C507.239 303.782 499.294 308.551 493.434 309.032C493.366 309.038 493.3 309.041 493.237 309.041C491.163 309.041 485.029 313.073 482.221 315.089" stroke="#6BA669" stroke-width="2.5"/>
<path d="M558.037 336.689C554.797 335.969 547.712 334.529 545.293 334.529C543.362 334.529 535.34 333.153 529.288 332.048C526.581 331.554 523.985 330.595 521.593 329.235L514.189 325.025L507.408 321.686C502.978 319.505 497.687 320.083 493.831 323.167V323.167C492.304 324.389 490.515 325.243 488.604 325.661L482.234 327.058C477.979 327.99 473.554 327.795 469.398 326.491L464.725 325.025L459.447 323.433C454.052 321.806 448.266 322.049 443.027 324.123L440.749 325.025" stroke="#6BA669" stroke-width="2.5"/>
<path d="M1.01367 205.792H4.36823C5.03066 205.792 5.61034 206.238 5.78102 206.878L5.81197 206.994C6.09612 208.059 7.44528 208.39 8.19046 207.577V207.577C8.23656 207.527 8.27876 207.474 8.31747 207.417C8.9166 206.548 10.2085 204.886 11.0279 204.571V204.571C14.3913 203.277 15.4031 197.651 19.0067 197.651V197.651C20.1465 197.651 25.9271 197.813 26.8226 198.302C27.7182 198.79 28.2881 200.419 29.2651 200.989C30.2421 201.558 31.8705 204.571 34.1501 204.571C36.4298 204.571 41.9661 204.001 42.6988 204.001C43.4316 204.001 46.0369 203.35 47.9095 204.571C48.2554 204.796 48.6831 205.044 49.1529 205.298C52.0866 206.884 55.6414 207.519 58.7379 206.281V206.281C58.8086 206.252 58.8911 206.227 58.984 206.205C62.4201 205.389 66.045 205.201 68.9773 203.232V203.232C70.1116 202.47 71.1278 201.55 72.0542 200.545C73.3421 199.149 74.8627 197.651 75.3828 197.651C76.2959 197.651 76.1655 196.999 81.3832 197.651C82.6946 197.814 83.9115 198.352 84.9976 199.077C88.876 201.666 92.5674 205.023 97.167 205.792V205.792" stroke="#6BA669" stroke-width="2.5"/>
<path d="M1.55115 214.216C3.42085 213.477 7.44724 211.998 8.59515 211.998C10.03 211.998 14.5956 211.998 15.3783 211.998V211.998C18.2527 211.998 20.2129 208.737 23.0873 208.737C24.3217 208.737 25.4488 208.737 26.0747 208.737C27.901 208.737 32.8578 208.737 34.0318 208.737C34.5905 208.737 35.7306 209.506 36.8099 210.358C38.1272 211.398 39.4507 212.437 40.8853 213.308L42.3803 214.216" stroke="#6BA669" stroke-width="2.5"/>
<path d="M35.9885 219.955C37.5539 218.521 40.9454 215.651 41.989 215.651C43.2934 215.651 45.3805 214.998 46.9459 214.738C48.5112 214.477 49.8156 214.216 52.4245 213.955C55.0334 213.694 56.5988 213.955 57.5119 213.955C58.425 213.955 59.4686 212.259 59.9903 213.955C60.5121 215.651 60.773 217.477 62.0774 218.39C63.121 219.12 64.3777 219.738 64.8756 219.955C64.2473 219.651 63.6428 218.912 66.2517 218.39C69.5128 217.738 70.2955 216.825 71.7303 216.825C73.1652 216.825 70.5563 216.825 75.7741 216.825C80.9919 216.825 85.2966 215.259 86.7315 216.825V216.825C88.6077 218.871 91.2921 219.955 94.0687 219.955C94.8212 219.955 95.4403 219.955 95.7322 219.955" stroke="#6BA669" stroke-width="2.5"/>
<path d="M32.0789 247.339V241.217L35.253 233.736C36.6512 233.206 39.6515 232.148 40.4677 232.148C41.2839 232.148 45.04 233.206 46.8161 233.736C47.534 234.416 49.0833 236.026 49.5368 237.023C49.9902 238.021 50.4059 239.026 50.5571 239.404L51.464 243.031L54.9782 241.217C55.9229 240.613 57.9937 239.404 58.7192 239.404C59.6261 239.404 60.9865 240.991 60.9865 242.011C60.9865 242.827 60.9865 244.77 60.9865 245.639V247.339" stroke="#6BA669" stroke-width="2.5"/>
</svg>
